<?xml version="1.0" standalone="no"?><svg xmlns="http://www.w3.org/2000/svg" viewBox="0 0 1440 320"><path fill="#373737" fill-opacity="1" d="M0,160L13.3,176C26.7,192,53,224,80,218.7C106.7,213,133,171,160,138.7C186.7,107,213,85,240,101.3C266.7,117,293,171,320,165.3C346.7,160,373,96,400,58.7C426.7,21,453,11,480,53.3C506.7,96,533,192,560,202.7C586.7,213,613,139,640,96C666.7,53,693,43,720,69.3C746.7,96,773,160,800,197.3C826.7,235,853,245,880,234.7C906.7,224,933,192,960,202.7C986.7,213,1013,267,1040,272C1066.7,277,1093,235,1120,186.7C1146.7,139,1173,85,1200,101.3C1226.7,117,1253,203,1280,245.3C1306.7,288,1333,288,1360,282.7C1386.7,277,1413,267,1427,261.3L1440,256L1440,0L1426.7,0C1413.3,0,1387,0,1360,0C1333.3,0,1307,0,1280,0C1253.3,0,1227,0,1200,0C1173.3,0,1147,0,1120,0C1093.3,0,1067,0,1040,0C1013.3,0,987,0,960,0C933.3,0,907,0,880,0C853.3,0,827,0,800,0C773.3,0,747,0,720,0C693.3,0,667,0,640,0C613.3,0,587,0,560,0C533.3,0,507,0,480,0C453.3,0,427,0,400,0C373.3,0,347,0,320,0C293.3,0,267,0,240,0C213.3,0,187,0,160,0C133.3,0,107,0,80,0C53.3,0,27,0,13,0L0,0Z"></path></svg>